<svg width="195" height="50" viewBox="0 0 195 50" fill="none" xmlns="http://www.w3.org/2000/svg">
<g clip-path="url(#clip0_233_2440)">
<path d="M0 0.36084H32.7983C42.3099 0.36084 50.0314 7.92317 50.0314 17.2386V32.4831C50.0314 41.7985 42.3099 49.3608 32.7983 49.3608H17.233C7.72151 49.3608 0 41.7985 0 32.4831V0.36084Z" fill="#38E54D"/>
<path d="M22.2419 29.3906C21.358 29.4451 20.6298 28.7427 20.6631 27.8825C20.7187 26.4289 20.1795 24.997 18.9398 24.1912C15.1374 21.7357 11.1071 24.3273 11.046 27.8553C11.0349 28.5576 10.5846 29.2055 9.8897 29.358C8.93354 29.5594 8.08301 28.8407 8.08301 27.937C8.08301 23.7339 11.5685 20.3202 15.8545 20.3202C20.1406 20.3202 23.5927 23.7012 23.6316 27.8662C23.6372 28.6447 23.0368 29.3362 22.2474 29.3852L22.2419 29.3906Z" fill="#FFFAF4"/>
<path d="M40.7536 29.3906C39.8697 29.4451 39.1415 28.7427 39.1748 27.8825C39.2304 26.4289 38.6912 24.997 37.4515 24.1912C33.6491 21.7357 29.6188 24.3273 29.5577 27.8553C29.5466 28.5576 29.0963 29.2055 28.4014 29.358C27.4453 29.5594 26.5947 28.8407 26.5947 27.937C26.5947 23.7339 30.0802 20.3202 34.3663 20.3202C38.6523 20.3202 42.1044 23.7012 42.1434 27.8662C42.1489 28.6447 41.5485 29.3362 40.7592 29.3852L40.7536 29.3906Z" fill="#FFFAF4"/>
<path d="M92.542 33.3107C91.8193 31.9931 91.458 30.4796 91.458 28.7755C91.458 27.0714 91.8193 25.5578 92.542 24.2402C93.2647 22.9227 94.282 21.861 95.5661 21.1206C96.8503 20.3801 98.329 20.0262 99.9355 20.0262C101.542 20.0262 102.86 20.3475 104.01 20.9899C105.161 21.6324 106.017 22.5361 106.64 23.6631C107.229 24.8228 107.529 26.1404 107.529 27.6212C107.529 28.329 107.429 29.1348 107.268 30.0331H96.2944C96.4889 31.0621 96.9837 31.8679 97.7397 32.4124C98.4958 32.9895 99.5131 33.2835 100.764 33.2835C102.309 33.2835 103.721 32.7989 105.005 31.8679L107.173 35.2162C106.484 35.8914 105.5 36.4739 104.216 36.8877C102.932 37.3069 101.687 37.5301 100.469 37.5301C98.6292 37.5301 97.017 37.1436 95.6718 36.4031C94.3265 35.6627 93.2703 34.6337 92.5476 33.3161L92.542 33.3107ZM102.07 24.9752C101.448 24.4308 100.725 24.1368 99.8355 24.1368C98.946 24.1368 98.2567 24.3927 97.6341 24.9099C97.0115 25.4544 96.5501 26.1948 96.3166 27.1639H103.121C103.021 26.2601 102.693 25.5251 102.07 24.9752Z" fill="#2D2727"/>
<path d="M109.714 33.327C108.991 32.0095 108.63 30.4959 108.63 28.7918C108.63 27.0877 108.991 25.5742 109.714 24.2566C110.437 22.939 111.454 21.8774 112.738 21.1369C114.022 20.3965 115.501 20.0426 117.107 20.0426C118.714 20.0426 120.031 20.3638 121.182 21.0063C122.333 21.6487 123.189 22.5525 123.812 23.6795C124.401 24.8392 124.701 26.1567 124.701 27.6376C124.701 28.3454 124.601 29.1512 124.44 30.0495H113.466C113.661 31.0785 114.156 31.8843 114.912 32.4287C115.668 33.0058 116.685 33.2998 117.936 33.2998C119.481 33.2998 120.893 32.8153 122.177 31.8843L124.345 35.2326C123.656 35.9077 122.672 36.4903 121.388 36.904C120.104 37.3233 118.859 37.5465 117.641 37.5465C115.801 37.5465 114.189 37.1599 112.844 36.4195C111.498 35.679 110.442 34.65 109.719 33.3325L109.714 33.327ZM119.242 24.9916C118.619 24.4472 117.897 24.1532 117.007 24.1532C116.118 24.1532 115.429 24.409 114.806 24.9263C114.183 25.4707 113.722 26.2112 113.488 27.1803H120.293C120.193 26.2765 119.865 25.5415 119.242 24.9916Z" fill="#2D2727"/>
<path d="M125.801 16.4927H130.371V20.3529H135.002V23.8917H130.371V29.652C130.371 31.0349 130.566 32.004 130.994 32.5811C131.388 33.1582 131.978 33.4522 132.767 33.4522C133.356 33.4522 133.918 33.2889 134.474 32.9676L136.019 36.1853C135.396 36.5719 134.735 36.8604 133.979 37.0891C133.223 37.3123 132.5 37.4103 131.744 37.4103C127.769 37.4103 125.796 34.9657 125.796 30.0385V16.4873L125.801 16.4927Z" fill="#2D2727"/>
<path d="M139.61 32.0367C138.687 30.2673 138.231 28.2365 138.231 25.8899C138.231 23.5434 138.693 21.4146 139.61 19.6452C140.527 17.8757 141.845 16.5255 143.518 15.5564C145.191 14.5927 147.131 14.1082 149.4 14.1082C151.14 14.1082 152.685 14.3967 154.03 14.9466C155.342 15.491 156.526 16.3622 157.61 17.5545L154.325 20.8702C153.569 20.0644 152.813 19.4873 152.057 19.1334C151.267 18.7795 150.383 18.5889 149.394 18.5889C147.587 18.5889 146.109 19.264 145.025 20.587C143.941 21.9046 143.379 23.674 143.379 25.8954C143.379 28.1167 143.935 29.7882 145.086 31.1112C146.236 32.4287 147.749 33.0766 149.689 33.0766C151.462 33.0766 153.435 32.5322 154.653 31.4052V28.4107H149.461V23.9354H159.022V32.4342C158.005 34.1383 156.654 35.3959 155.048 36.2616C153.435 37.1327 151.562 37.5465 149.461 37.5465C147.193 37.5465 145.219 37.0619 143.546 36.0983C141.839 35.1673 140.522 33.8116 139.605 32.0422L139.61 32.0367Z" fill="#2D2727"/>
<path d="M60.2995 32.0367C59.3767 30.2673 58.9209 28.2365 58.9209 25.8899C58.9209 23.5434 59.3823 21.4146 60.2995 19.6452C61.2168 17.8757 62.5343 16.5255 64.2075 15.5564C65.8808 14.5927 67.8209 14.1082 70.089 14.1082C71.829 14.1082 73.3744 14.3967 74.7197 14.9466C76.0316 15.491 77.2157 16.3622 78.2997 17.5545L75.0143 20.8702C74.2583 20.0644 73.5023 19.4873 72.7462 19.1334C71.9568 18.7795 71.073 18.5889 70.0835 18.5889C68.2768 18.5889 66.7981 19.264 65.714 20.587C64.63 21.9046 64.0686 23.674 64.0686 25.8954C64.0686 28.1167 64.6245 29.7882 65.7752 31.1112C66.9259 32.4287 68.438 33.0766 70.3781 33.0766C72.1514 33.0766 74.1249 32.5322 75.3423 31.4052V28.4107H70.1502V23.9354H79.7117V32.4342C78.6944 34.1383 77.3436 35.3959 75.737 36.2616C74.1249 37.1327 72.2515 37.5465 70.1502 37.5465C67.8821 37.5465 65.9086 37.0619 64.2353 36.0983C62.5287 35.1673 61.2112 33.8116 60.294 32.0422L60.2995 32.0367Z" fill="#2D2727"/>
<path d="M164.504 20.3528V22.2529C166.183 20.7721 167.956 20.0316 170.091 20.0316C170.68 20.0316 171.275 20.1296 171.831 20.2875L170.78 24.4089C170.486 24.2783 170.158 24.1857 169.73 24.0877C169.302 24.0224 168.907 23.9897 168.546 23.9897C167.79 23.9897 167.067 24.1531 166.411 24.5069C165.755 24.8608 164.999 25.3454 164.504 26.0205V37.0891H160.135V20.3528H164.504Z" fill="#2D2727"/>
<path d="M85.1819 20.3528V22.2529C86.8607 20.7721 88.6341 20.0316 90.7687 20.0316C91.358 20.0316 91.9528 20.1296 92.5087 20.2875L91.4581 24.4089C91.1634 24.2783 90.8355 24.1857 90.4074 24.0877C89.9794 24.0224 89.5847 23.9897 89.2233 23.9897C88.4673 23.9897 87.7446 24.1531 87.0887 24.5069C86.4327 24.8608 85.6767 25.3454 85.1819 26.0205V37.0891H80.8125V20.3528H85.1819Z" fill="#2D2727"/>
<path d="M174.544 12.7579C175.3 12.7579 175.922 13.0138 176.45 13.4984C176.945 13.9829 177.206 14.5927 177.206 15.3332C177.206 16.0736 176.945 16.6834 176.45 17.1679C175.922 17.6852 175.3 17.941 174.544 17.941C173.788 17.941 173.165 17.6852 172.67 17.1679C172.142 16.6834 171.881 16.0736 171.881 15.3332C171.881 14.5927 172.142 13.9829 172.67 13.4984C173.165 13.0138 173.788 12.7579 174.544 12.7579ZM176.812 20.3529V37.0892H172.242V20.3529H176.812Z" fill="#2D2727"/>
<path d="M190.437 12.1808V21.6977C189.208 20.4945 187.846 20.0317 186.067 20.0317C184.522 20.0317 183.177 20.4182 181.993 21.1587C180.809 21.8991 179.886 22.9608 179.263 24.311C178.64 25.6993 178.312 27.2401 178.312 28.9823C178.312 31.6501 178.968 33.7136 180.314 35.189C181.131 36.1037 182.132 36.7407 183.316 37.0891C184.044 37.3015 184.844 37.4103 185.706 37.4103C186.456 37.4103 187.124 37.3015 187.741 37.0891C188.741 36.7461 189.603 36.1146 190.437 35.2053V37.0891H195.006V12.1808H190.437ZM190.437 29.015C190.437 30.2346 190.109 31.1982 189.453 31.8788C188.758 32.5866 187.874 32.9405 186.79 32.9405C185.706 32.9405 184.817 32.5866 184.161 31.8461C183.471 31.1057 183.143 30.1039 183.143 28.7863C183.143 27.4688 183.471 26.4997 184.161 25.6993C184.85 24.8936 185.706 24.507 186.757 24.507C187.807 24.507 188.725 24.8609 189.419 25.5687C190.109 26.2765 190.437 27.3055 190.437 28.6557V29.015Z" fill="#2D2727"/>
</g>
<defs>
<clipPath id="clip0_233_2440">
<rect width="195" height="49" fill="#fff" transform="translate(0 0.36084)"/>
</clipPath>
</defs>
</svg>
